<svg width="202" height="96" viewBox="0 0 202 96" fill="none" xmlns="http://www.w3.org/2000/svg">
<g filter="url(#filter0_d_19076_16596)">
<mask id="path-1-inside-1_19076_16596" fill="white">
<path d="M91.8799 11.3457C96.0368 9.16487 101.174 10.7662 103.355 14.9229C103.738 15.6526 104.004 16.4126 104.16 17.1816C104.347 18.1025 105.091 18.8721 106.031 18.8721H178.722C186.291 18.8721 190.076 18.8722 192.74 20.7812C193.647 21.4309 194.441 22.2252 195.091 23.1318C197 25.7964 197 29.5815 197 37.1514C197 44.7211 197 48.5064 195.091 51.1709C194.441 52.0774 193.647 52.8709 192.74 53.5205C190.076 55.4298 186.291 55.4297 178.722 55.4297H97.1035C89.5338 55.4297 85.7485 55.4299 83.084 53.5205C82.1777 52.871 81.3839 52.0772 80.7344 51.1709C78.825 48.5064 78.8252 44.7211 78.8252 37.1514C78.8252 29.5815 78.825 25.7964 80.7344 23.1318C81.384 22.2253 82.1775 21.4309 83.084 20.7812C83.8796 20.2111 84.7753 19.8112 85.8418 19.5307C86.6806 19.3101 87.2894 18.5673 87.4089 17.7083C87.7737 15.0849 89.3555 12.6702 91.8799 11.3457ZM76.8496 4.90625C78.9279 3.81613 81.4964 4.6172 82.5869 6.69531C83.6774 8.77372 82.8771 11.343 80.7988 12.4336C78.7203 13.5241 76.1511 12.7231 75.0605 10.6445C73.9701 8.56602 74.7711 5.99678 76.8496 4.90625Z"/>
</mask>
<path d="M91.8799 11.3457C96.0368 9.16487 101.174 10.7662 103.355 14.9229C103.738 15.6526 104.004 16.4126 104.16 17.1816C104.347 18.1025 105.091 18.8721 106.031 18.8721H178.722C186.291 18.8721 190.076 18.8722 192.74 20.7812C193.647 21.4309 194.441 22.2252 195.091 23.1318C197 25.7964 197 29.5815 197 37.1514C197 44.7211 197 48.5064 195.091 51.1709C194.441 52.0774 193.647 52.8709 192.74 53.5205C190.076 55.4298 186.291 55.4297 178.722 55.4297H97.1035C89.5338 55.4297 85.7485 55.4299 83.084 53.5205C82.1777 52.871 81.3839 52.0772 80.7344 51.1709C78.825 48.5064 78.8252 44.7211 78.8252 37.1514C78.8252 29.5815 78.825 25.7964 80.7344 23.1318C81.384 22.2253 82.1775 21.4309 83.084 20.7812C83.8796 20.2111 84.7753 19.8112 85.8418 19.5307C86.6806 19.3101 87.2894 18.5673 87.4089 17.7083C87.7737 15.0849 89.3555 12.6702 91.8799 11.3457ZM76.8496 4.90625C78.9279 3.81613 81.4964 4.6172 82.5869 6.69531C83.6774 8.77372 82.8771 11.343 80.7988 12.4336C78.7203 13.5241 76.1511 12.7231 75.0605 10.6445C73.9701 8.56602 74.7711 5.99678 76.8496 4.90625Z" fill="white"/>
<path d="M91.8799 11.3457L91.4849 10.5928L91.4849 10.5929L91.8799 11.3457ZM103.355 14.9229L104.108 14.5279L104.108 14.5278L103.355 14.9229ZM178.722 18.8721V18.0219V18.8721ZM192.74 20.7812L193.235 20.0902L193.235 20.0901L192.74 20.7812ZM195.091 23.1318L195.782 22.6366L195.782 22.6366L195.091 23.1318ZM197 37.1514H197.85H197ZM195.091 51.1709L195.782 51.6661L195.782 51.6661L195.091 51.1709ZM192.74 53.5205L193.235 54.2116L193.235 54.2116L192.74 53.5205ZM178.722 55.4297L178.722 56.2799L178.722 55.4297ZM97.1035 55.4297V56.2799V55.4297ZM83.084 53.5205L82.5887 54.2115L82.5888 54.2116L83.084 53.5205ZM80.7344 51.1709L80.0433 51.6661L80.0433 51.6661L80.7344 51.1709ZM78.8252 37.1514L77.975 37.1514L78.8252 37.1514ZM80.7344 23.1318L80.0433 22.6366L80.0433 22.6366L80.7344 23.1318ZM83.084 20.7812L82.5888 20.0902L82.5888 20.0902L83.084 20.7812ZM76.8496 4.90625L76.4547 4.15335L76.4546 4.1534L76.8496 4.90625ZM82.5869 6.69531L83.3398 6.30031L83.3397 6.30025L82.5869 6.69531ZM80.7988 12.4336L81.1938 13.1864L81.1939 13.1864L80.7988 12.4336ZM75.0605 10.6445L74.3077 11.0395L74.3077 11.0395L75.0605 10.6445ZM87.4089 17.7083L86.5668 17.5912L87.4089 17.7083ZM104.16 17.1816L104.993 17.0126L104.16 17.1816ZM91.8799 11.3457L92.2749 12.0986C96.016 10.1358 100.64 11.577 102.603 15.3179L103.355 14.9229L104.108 14.5278C101.709 9.95534 96.0575 8.19391 91.4849 10.5928L91.8799 11.3457ZM103.355 14.9229L102.603 15.3179C102.948 15.9756 103.187 16.6595 103.327 17.3507L104.16 17.1816L104.993 17.0126C104.822 16.1658 104.529 15.3296 104.108 14.5279L103.355 14.9229ZM106.031 18.8721V19.7223H178.722V18.8721V18.0219H106.031V18.8721ZM178.722 18.8721L178.722 19.7223C182.525 19.7223 185.31 19.7234 187.48 19.9561C189.634 20.1871 191.081 20.6383 192.245 21.4724L192.74 20.7812L193.235 20.0901C191.735 19.0152 189.958 18.5118 187.661 18.2654C185.38 18.0208 182.488 18.0219 178.722 18.0219L178.722 18.8721ZM192.74 20.7812L192.245 21.4723C193.076 22.0678 193.804 22.796 194.4 23.6271L195.091 23.1318L195.782 22.6366C195.078 21.6545 194.218 20.794 193.235 20.0902L192.74 20.7812ZM195.091 23.1318L194.4 23.627C195.234 24.7912 195.685 26.2386 195.916 28.3927C196.149 30.5625 196.15 33.3477 196.15 37.1514H197H197.85C197.85 33.3852 197.851 30.4929 197.607 28.2115C197.36 25.9144 196.857 24.137 195.782 22.6366L195.091 23.1318ZM197 37.1514L196.15 37.1514C196.15 40.955 196.149 43.7402 195.916 45.91C195.685 48.0641 195.234 49.5116 194.4 50.6757L195.091 51.1709L195.782 51.6661C196.857 50.1657 197.36 48.3883 197.607 46.0912C197.851 43.8098 197.85 40.9175 197.85 37.1514L197 37.1514ZM195.091 51.1709L194.4 50.6757C193.804 51.5064 193.076 52.2338 192.245 52.8294L192.74 53.5205L193.235 54.2116C194.217 53.508 195.078 52.6485 195.782 51.6661L195.091 51.1709ZM192.74 53.5205L192.245 52.8294C191.081 53.6636 189.634 54.1148 187.48 54.3457C185.31 54.5784 182.525 54.5795 178.722 54.5795L178.722 55.4297L178.722 56.2799C182.488 56.2799 185.38 56.281 187.661 56.0364C189.958 55.7901 191.735 55.2867 193.235 54.2116L192.74 53.5205ZM178.722 55.4297V54.5795H97.1035V55.4297V56.2799H178.722V55.4297ZM97.1035 55.4297L97.1035 54.5795C93.2999 54.5795 90.5147 54.5784 88.3449 54.3458C86.1908 54.1148 84.7433 53.6636 83.5792 52.8294L83.084 53.5205L82.5888 54.2116C84.0892 55.2867 85.8666 55.7902 88.1637 56.0364C90.4451 56.2811 93.3374 56.2799 97.1035 56.2799L97.1035 55.4297ZM83.084 53.5205L83.5792 52.8295C82.7484 52.234 82.0208 51.5065 81.4254 50.6757L80.7344 51.1709L80.0433 51.6661C80.747 52.648 81.6069 53.5079 82.5887 54.2115L83.084 53.5205ZM80.7344 51.1709L81.4254 50.6757C80.5913 49.5116 80.1401 48.0641 79.9091 45.91C79.6765 43.7402 79.6754 40.955 79.6754 37.1514L78.8252 37.1514L77.975 37.1514C77.975 40.9175 77.9738 43.8098 78.2184 46.0912C78.4647 48.3883 78.9681 50.1657 80.0433 51.6661L80.7344 51.1709ZM78.8252 37.1514H79.6754C79.6754 33.3477 79.6765 30.5625 79.9091 28.3927C80.1401 26.2386 80.5912 24.7912 81.4254 23.627L80.7344 23.1318L80.0433 22.6366C78.9681 24.137 78.4647 25.9144 78.2184 28.2115C77.9738 30.4929 77.975 33.3852 77.975 37.1514H78.8252ZM80.7344 23.1318L81.4254 23.6271C82.0211 22.7958 82.7485 22.0676 83.5792 21.4723L83.084 20.7812L82.5888 20.0902C81.6064 20.7942 80.7469 21.6548 80.0433 22.6366L80.7344 23.1318ZM83.084 20.7812L83.5792 21.4723C84.277 20.9723 85.0742 20.6117 86.0581 20.353L85.8418 19.5307L85.6256 18.7085C84.4765 19.0107 83.4823 19.4499 82.5888 20.0902L83.084 20.7812ZM87.4089 17.7083L88.251 17.8254C88.5797 15.4619 90.0036 13.2902 92.2749 12.0986L91.8799 11.3457L91.4849 10.5929C88.7074 12.0501 86.9678 14.7079 86.5668 17.5912L87.4089 17.7083ZM76.8496 4.90625L77.2445 5.65915C78.907 4.78715 80.9616 5.42788 81.8341 7.09038L82.5869 6.69531L83.3397 6.30025C82.0311 3.80652 78.9489 2.84511 76.4547 4.15335L76.8496 4.90625ZM82.5869 6.69531L81.8341 7.09031C82.7065 8.75314 82.0661 10.8084 80.4038 11.6808L80.7988 12.4336L81.1939 13.1864C83.6881 11.8775 84.6483 8.7943 83.3398 6.30031L82.5869 6.69531ZM80.7988 12.4336L80.4038 11.6807C78.7411 12.5531 76.6858 11.9123 75.8134 10.2495L75.0605 10.6445L74.3077 11.0395C75.6164 13.5338 78.6995 14.4952 81.1938 13.1864L80.7988 12.4336ZM75.0605 10.6445L75.8134 10.2495C74.9411 8.58684 75.5819 6.53149 77.2446 5.6591L76.8496 4.90625L76.4546 4.1534C73.9603 5.46207 72.999 8.5452 74.3077 11.0395L75.0605 10.6445ZM85.8418 19.5307L86.0581 20.353C87.2576 20.0375 88.0885 18.9934 88.251 17.8254L87.4089 17.7083L86.5668 17.5912C86.4903 18.1412 86.1035 18.5828 85.6256 18.7085L85.8418 19.5307ZM104.16 17.1816L103.327 17.3507C103.573 18.5638 104.589 19.7223 106.031 19.7223V18.8721V18.0219C105.593 18.0219 105.121 17.6412 104.993 17.0126L104.16 17.1816Z" fill="#97979F" fill-opacity="0.278431" mask="url(#path-1-inside-1_19076_16596)"/>
<g clip-path="url(#clip0_19076_16596)">
<path d="M94.5257 33.9405C94.2797 34.0924 93.9766 34.0924 93.7306 33.9405C92.6008 33.2429 89.4521 31.0717 89.4521 28.5427C89.4521 27.1927 90.5465 26.0984 91.8964 26.0984C92.8907 26.0984 93.5437 26.483 94.1282 27.0599C94.7127 26.483 95.3656 26.0984 96.3599 26.0984C97.7098 26.0984 98.8042 27.1927 98.8042 28.5427C98.8042 31.0717 95.6555 33.2428 94.5257 33.9405Z" fill="#75757E"/>
</g>
<rect x="100.93" y="26.9485" width="34.8575" height="5.95128" rx="2.97564" fill="#97979F" fill-opacity="0.278431"/>
<rect x="89.0273" y="38.426" width="97.7711" height="11.0524" rx="5.52619" fill="#97979F" fill-opacity="0.278431"/>
</g>
<g filter="url(#filter1_d_19076_16596)">
<mask id="path-7-inside-2_19076_16596" fill="white">
<path d="M57.0928 27.915C61.2498 25.734 66.3873 27.3362 68.5684 31.4932C68.9513 32.223 69.2172 32.9829 69.3732 33.7518C69.5601 34.6727 70.3042 35.4424 71.2439 35.4424H143.935C151.504 35.4424 155.29 35.4422 157.954 37.3516C158.861 38.0012 159.654 38.7956 160.304 39.7021C162.213 42.3666 162.214 46.1512 162.214 53.7207C162.214 61.2905 162.213 65.0757 160.304 67.7402C159.654 68.6468 158.861 69.4412 157.954 70.0908C155.29 72.0002 151.504 72 143.935 72H62.3174C54.7478 72 50.9624 72 48.2979 70.0908C47.3912 69.4411 46.5969 68.6469 45.9473 67.7402C44.038 65.0757 44.0381 61.2904 44.0381 53.7207C44.0381 46.1514 44.0381 42.3666 45.9473 39.7021C46.5969 38.7955 47.3912 38.0012 48.2979 37.3516C49.0933 36.7816 49.9886 36.3817 51.0546 36.1012C51.8934 35.8805 52.5023 35.1376 52.6217 34.2785C52.9863 31.6548 54.5682 29.2396 57.0928 27.915ZM42.0635 21.4766C44.1419 20.3861 46.7111 21.1864 47.8018 23.2646C48.8923 25.3432 48.0912 27.9124 46.0127 29.0029C43.9342 30.0935 41.365 29.2924 40.2744 27.2139C39.1843 25.1355 39.9853 22.5671 42.0635 21.4766Z"/>
</mask>
<path d="M57.0928 27.915C61.2498 25.734 66.3873 27.3362 68.5684 31.4932C68.9513 32.223 69.2172 32.9829 69.3732 33.7518C69.5601 34.6727 70.3042 35.4424 71.2439 35.4424H143.935C151.504 35.4424 155.29 35.4422 157.954 37.3516C158.861 38.0012 159.654 38.7956 160.304 39.7021C162.213 42.3666 162.214 46.1512 162.214 53.7207C162.214 61.2905 162.213 65.0757 160.304 67.7402C159.654 68.6468 158.861 69.4412 157.954 70.0908C155.29 72.0002 151.504 72 143.935 72H62.3174C54.7478 72 50.9624 72 48.2979 70.0908C47.3912 69.4411 46.5969 68.6469 45.9473 67.7402C44.038 65.0757 44.0381 61.2904 44.0381 53.7207C44.0381 46.1514 44.0381 42.3666 45.9473 39.7021C46.5969 38.7955 47.3912 38.0012 48.2979 37.3516C49.0933 36.7816 49.9886 36.3817 51.0546 36.1012C51.8934 35.8805 52.5023 35.1376 52.6217 34.2785C52.9863 31.6548 54.5682 29.2396 57.0928 27.915ZM42.0635 21.4766C44.1419 20.3861 46.7111 21.1864 47.8018 23.2646C48.8923 25.3432 48.0912 27.9124 46.0127 29.0029C43.9342 30.0935 41.365 29.2924 40.2744 27.2139C39.1843 25.1355 39.9853 22.5671 42.0635 21.4766Z" fill="white"/>
<path d="M57.0928 27.915L56.6978 27.1622L56.6978 27.1622L57.0928 27.915ZM68.5684 31.4932L69.3212 31.0982L69.3212 31.0982L68.5684 31.4932ZM143.935 35.4424V34.5922V35.4424ZM157.954 37.3516L158.449 36.6605L158.449 36.6605L157.954 37.3516ZM160.304 39.7021L160.995 39.2069L160.995 39.2069L160.304 39.7021ZM162.214 53.7207L163.064 53.7207L162.214 53.7207ZM160.304 67.7402L160.995 68.2355L160.995 68.2354L160.304 67.7402ZM157.954 70.0908L158.449 70.7819L158.449 70.7819L157.954 70.0908ZM143.935 72L143.935 72.8502L143.935 72ZM48.2979 70.0908L47.8026 70.7819L47.8027 70.7819L48.2979 70.0908ZM45.9473 67.7402L45.2562 68.2354L45.2562 68.2354L45.9473 67.7402ZM44.0381 53.7207H43.1879H44.0381ZM45.9473 39.7021L45.2562 39.2069L45.2562 39.207L45.9473 39.7021ZM48.2979 37.3516L47.8027 36.6605L47.8026 36.6605L48.2979 37.3516ZM42.0635 21.4766L41.6685 20.7237L41.6684 20.7237L42.0635 21.4766ZM47.8018 23.2646L48.5546 22.8696L48.5546 22.8696L47.8018 23.2646ZM46.0127 29.0029L46.4077 29.7558L46.4077 29.7558L46.0127 29.0029ZM40.2744 27.2139L39.5215 27.6088L39.5216 27.6089L40.2744 27.2139ZM51.0546 36.1012L51.271 36.9234L51.0546 36.1012ZM52.6217 34.2785L53.4638 34.3955L53.4638 34.3955L52.6217 34.2785ZM69.3732 33.7518L68.54 33.9209L69.3732 33.7518ZM57.0928 27.915L57.4878 28.6679C61.2289 26.7051 65.8526 28.1469 67.8155 31.8882L68.5684 31.4932L69.3212 31.0982C66.922 26.5254 61.2707 24.763 56.6978 27.1622L57.0928 27.915ZM68.5684 31.4932L67.8155 31.8882C68.1606 32.546 68.3998 33.2298 68.54 33.9209L69.3732 33.7518L70.2064 33.5827C70.0346 32.736 69.7419 31.8999 69.3212 31.0982L68.5684 31.4932ZM71.2439 35.4424V36.2926H143.935V35.4424V34.5922H71.2439V35.4424ZM143.935 35.4424L143.935 36.2926C147.738 36.2926 150.523 36.2937 152.693 36.5263C154.847 36.7573 156.295 37.2084 157.459 38.0426L157.954 37.3516L158.449 36.6605C156.949 35.5853 155.171 35.0819 152.874 34.8356C150.593 34.591 147.701 34.5922 143.935 34.5922L143.935 35.4424ZM157.954 37.3516L157.459 38.0426C158.29 38.6379 159.017 39.3661 159.613 40.1974L160.304 39.7021L160.995 39.2069C160.291 38.2251 159.432 37.3645 158.449 36.6605L157.954 37.3516ZM160.304 39.7021L159.613 40.1974C160.447 41.3615 160.898 42.8089 161.129 44.9628C161.362 47.1323 161.364 49.9173 161.364 53.7207L162.214 53.7207L163.064 53.7207C163.064 49.9546 163.065 47.0626 162.82 44.7813C162.574 42.4844 162.07 40.7072 160.995 39.2069L160.304 39.7021ZM162.214 53.7207H161.364C161.364 57.5243 161.362 60.3095 161.129 62.4792C160.898 64.6333 160.447 66.0808 159.613 67.245L160.304 67.7402L160.995 68.2354C162.07 66.7351 162.574 64.9578 162.82 62.6607C163.065 60.3792 163.064 57.4869 163.064 53.7207H162.214ZM160.304 67.7402L159.613 67.245C159.017 68.0763 158.29 68.8045 157.459 69.3998L157.954 70.0908L158.449 70.7819C159.432 70.0779 160.291 69.2173 160.995 68.2355L160.304 67.7402ZM157.954 70.0908L157.459 69.3998C156.295 70.2339 154.847 70.6851 152.693 70.9161C150.523 71.1487 147.738 71.1498 143.935 71.1498L143.935 72L143.935 72.8502C147.701 72.8502 150.593 72.8514 152.874 72.6068C155.171 72.3605 156.949 71.8571 158.449 70.7819L157.954 70.0908ZM143.935 72V71.1498H62.3174V72V72.8502H143.935V72ZM62.3174 72V71.1498C58.5138 71.1498 55.7286 71.1487 53.5588 70.916C51.4047 70.685 49.9572 70.2339 48.793 69.3997L48.2979 70.0908L47.8027 70.7819C49.3031 71.857 51.0805 72.3604 53.3776 72.6067C55.659 72.8513 58.5513 72.8502 62.3174 72.8502V72ZM48.2979 70.0908L48.7931 69.3998C47.962 68.8042 47.2339 68.0761 46.6383 67.245L45.9473 67.7402L45.2562 68.2354C45.96 69.2176 46.8205 70.0781 47.8026 70.7819L48.2979 70.0908ZM45.9473 67.7402L46.6383 67.245C45.8042 66.0809 45.353 64.6334 45.122 62.4793C44.8894 60.3095 44.8883 57.5243 44.8883 53.7207H44.0381H43.1879C43.1879 57.4868 43.1867 60.3791 43.4314 62.6606C43.6777 64.9576 44.1811 66.735 45.2562 68.2354L45.9473 67.7402ZM44.0381 53.7207L44.8883 53.7207C44.8883 49.9173 44.8894 47.1323 45.1221 44.9628C45.3531 42.8088 45.8042 41.3614 46.6384 40.1973L45.9473 39.7021L45.2562 39.207C44.1811 40.7073 43.6777 42.4846 43.4314 44.7815C43.1868 47.0627 43.1879 49.9548 43.1879 53.7207L44.0381 53.7207ZM45.9473 39.7021L46.6383 40.1974C47.2339 39.3663 47.962 38.6382 48.7931 38.0426L48.2979 37.3516L47.8026 36.6605C46.8205 37.3643 45.96 38.2248 45.2562 39.2069L45.9473 39.7021ZM48.2979 37.3516L48.793 38.0426C49.4907 37.5427 50.2876 37.1821 51.271 36.9234L51.0546 36.1012L50.8383 35.279C49.6896 35.5812 48.6959 36.0204 47.8027 36.6605L48.2979 37.3516ZM52.6217 34.2785L53.4638 34.3955C53.7923 32.0317 55.2163 29.8597 57.4878 28.6679L57.0928 27.915L56.6978 27.1622C53.92 28.6196 52.1804 31.2778 51.7796 34.1615L52.6217 34.2785ZM42.0635 21.4766L42.4585 22.2294C44.1213 21.357 46.1766 21.9974 47.0489 23.6597L47.8018 23.2646L48.5546 22.8696C47.2457 20.3754 44.1625 19.4152 41.6685 20.7237L42.0635 21.4766ZM47.8018 23.2646L47.0489 23.6596C47.9213 25.3223 47.2805 27.3777 45.6177 28.2501L46.0127 29.0029L46.4077 29.7558C48.902 28.4471 49.8633 25.364 48.5546 22.8696L47.8018 23.2646ZM46.0127 29.0029L45.6177 28.2501C43.955 29.1224 41.8997 28.4816 41.0273 26.8189L40.2744 27.2139L39.5216 27.6089C40.8302 30.1031 43.9134 31.0645 46.4077 29.7558L46.0127 29.0029ZM40.2744 27.2139L41.0273 26.819C40.1553 25.1564 40.796 23.1018 42.4585 22.2294L42.0635 21.4766L41.6684 20.7237C39.1746 22.0324 38.2133 25.1146 39.5215 27.6088L40.2744 27.2139ZM51.0546 36.1012L51.271 36.9234C52.4705 36.6077 53.3014 35.5637 53.4638 34.3955L52.6217 34.2785L51.7796 34.1615C51.7031 34.7115 51.3163 35.1532 50.8383 35.279L51.0546 36.1012ZM69.3732 33.7518L68.54 33.9209C68.7862 35.1339 69.8022 36.2926 71.2439 36.2926V35.4424V34.5922C70.8061 34.5922 70.334 34.2115 70.2064 33.5827L69.3732 33.7518Z" fill="#97979F" fill-opacity="0.278431" mask="url(#path-7-inside-2_19076_16596)"/>
<g clip-path="url(#clip1_19076_16596)">
<path d="M57.9188 42.0375C57.3665 41.8463 56.7905 42.2564 56.7905 42.8409V47.0426C56.5972 46.9639 56.381 46.9199 56.1529 46.9199C55.3312 46.9199 54.665 47.4908 54.665 48.1952C54.665 48.8995 55.3312 49.4704 56.1529 49.4704C56.9746 49.4704 57.6407 48.8995 57.6407 48.1952V43.691L62.3167 45.3097V48.3179C62.1234 48.2392 61.9072 48.1952 61.679 48.1952C60.8573 48.1952 60.1912 48.7661 60.1912 49.4704C60.1912 50.1747 60.8573 50.7457 61.679 50.7457C62.5008 50.7457 63.1669 50.1747 63.1669 49.4704V44.3838C63.1669 44.0667 62.9659 43.7845 62.6663 43.6808L57.9188 42.0375Z" fill="#75757E"/>
</g>
<rect x="66.1426" y="43.519" width="34.8575" height="5.95128" rx="2.97564" fill="#97979F" fill-opacity="0.278431"/>
<rect x="54.2402" y="54.9966" width="97.7711" height="11.0524" rx="5.52619" fill="#97979F" fill-opacity="0.278431"/>
</g>
<g filter="url(#filter2_d_19076_16596)">
<mask id="path-13-inside-3_19076_16596" fill="white">
<path d="M22.3047 44.9163C26.4617 42.7352 31.6001 44.3365 33.7812 48.4934C34.1641 49.2231 34.4297 49.9832 34.5854 50.7521C34.772 51.673 35.516 52.4426 36.4557 52.4426H109.146C116.716 52.4426 120.502 52.4426 123.166 54.3518C124.073 55.0015 124.867 55.7958 125.517 56.7024C127.426 59.3669 127.426 63.1522 127.426 70.7219C127.426 78.2912 127.426 82.076 125.517 84.7405C124.867 85.6471 124.073 86.4414 123.166 87.0911C120.501 89.0004 116.716 89.0002 109.146 89.0002H27.5293C19.9595 89.0002 16.1743 89.0004 13.5098 87.0911C12.6032 86.4414 11.8098 85.647 11.1602 84.7405C9.25089 82.076 9.25 78.2915 9.25 70.7219C9.25 63.1521 9.25078 59.3669 11.1602 56.7024C11.8098 55.7958 12.6032 55.0014 13.5098 54.3518C14.3054 53.7817 15.2011 53.3818 16.2676 53.1013C17.1063 52.8807 17.7152 52.1379 17.8346 51.2788C18.1993 48.6555 19.7805 46.2408 22.3047 44.9163ZM7.27637 38.4768C9.35475 37.3866 11.9231 38.1876 13.0137 40.2659C14.1042 42.3443 13.304 44.9135 11.2256 46.0042C9.14707 47.0947 6.57785 46.2936 5.4873 44.2151C4.39677 42.1366 5.19785 39.5673 7.27637 38.4768Z"/>
</mask>
<path d="M22.3047 44.9163C26.4617 42.7352 31.6001 44.3365 33.7812 48.4934C34.1641 49.2231 34.4297 49.9832 34.5854 50.7521C34.772 51.673 35.516 52.4426 36.4557 52.4426H109.146C116.716 52.4426 120.502 52.4426 123.166 54.3518C124.073 55.0015 124.867 55.7958 125.517 56.7024C127.426 59.3669 127.426 63.1522 127.426 70.7219C127.426 78.2912 127.426 82.076 125.517 84.7405C124.867 85.6471 124.073 86.4414 123.166 87.0911C120.501 89.0004 116.716 89.0002 109.146 89.0002H27.5293C19.9595 89.0002 16.1743 89.0004 13.5098 87.0911C12.6032 86.4414 11.8098 85.647 11.1602 84.7405C9.25089 82.076 9.25 78.2915 9.25 70.7219C9.25 63.1521 9.25078 59.3669 11.1602 56.7024C11.8098 55.7958 12.6032 55.0014 13.5098 54.3518C14.3054 53.7817 15.2011 53.3818 16.2676 53.1013C17.1063 52.8807 17.7152 52.1379 17.8346 51.2788C18.1993 48.6555 19.7805 46.2408 22.3047 44.9163ZM7.27637 38.4768C9.35475 37.3866 11.9231 38.1876 13.0137 40.2659C14.1042 42.3443 13.304 44.9135 11.2256 46.0042C9.14707 47.0947 6.57785 46.2936 5.4873 44.2151C4.39677 42.1366 5.19785 39.5673 7.27637 38.4768Z" fill="white"/>
<path d="M22.3047 44.9163L21.9097 44.1634L21.9096 44.1634L22.3047 44.9163ZM33.7812 48.4934L34.5341 48.0984L34.5341 48.0984L33.7812 48.4934ZM123.166 54.3518L123.661 53.6607L123.661 53.6607L123.166 54.3518ZM125.517 56.7024L126.208 56.2072L126.208 56.2072L125.517 56.7024ZM127.426 70.7219H128.276H127.426ZM125.517 84.7405L126.208 85.2357L126.208 85.2357L125.517 84.7405ZM123.166 87.0911L123.661 87.7821L123.661 87.7821L123.166 87.0911ZM27.5293 89.0002V89.8504V89.0002ZM13.5098 87.0911L13.0145 87.7821L13.0146 87.7821L13.5098 87.0911ZM11.1602 84.7405L10.4691 85.2357L10.4691 85.2357L11.1602 84.7405ZM9.25 70.7219L8.39982 70.7219L9.25 70.7219ZM11.1602 56.7024L10.4691 56.2072L10.4691 56.2072L11.1602 56.7024ZM13.5098 54.3518L13.0146 53.6607L13.0145 53.6607L13.5098 54.3518ZM7.27637 38.4768L6.88143 37.7239L6.88137 37.724L7.27637 38.4768ZM13.0137 40.2659L13.7665 39.8709L13.7665 39.8708L13.0137 40.2659ZM11.2256 46.0042L11.6206 46.757L11.6206 46.757L11.2256 46.0042ZM5.4873 44.2151L4.73445 44.6101L4.73446 44.6101L5.4873 44.2151ZM16.2676 53.1013L16.4838 53.9235L16.2676 53.1013ZM34.5854 50.7521L33.7522 50.9209L34.5854 50.7521ZM22.3047 44.9163L22.6997 45.6691C26.441 43.7062 31.0655 45.1474 33.0284 48.8884L33.7812 48.4934L34.5341 48.0984C32.1347 43.5256 26.4824 41.7643 21.9097 44.1634L22.3047 44.9163ZM33.7812 48.4934L33.0284 48.8884C33.3734 49.5459 33.6122 50.2297 33.7522 50.9209L34.5854 50.7521L35.4187 50.5833C35.2472 49.7366 34.9548 48.9003 34.5341 48.0984L33.7812 48.4934ZM36.4557 52.4426V53.2928H109.146V52.4426V51.5924H36.4557V52.4426ZM109.146 52.4426V53.2928C112.95 53.2928 115.735 53.2939 117.905 53.5266C120.059 53.7576 121.507 54.2088 122.671 55.0429L123.166 54.3518L123.661 53.6607C122.161 52.5856 120.383 52.0822 118.086 51.8359C115.805 51.5913 112.913 51.5924 109.146 51.5924V52.4426ZM123.166 54.3518L122.671 55.0429C123.502 55.6384 124.23 56.3665 124.826 57.1976L125.517 56.7024L126.208 56.2072C125.504 55.225 124.643 54.3646 123.661 53.6607L123.166 54.3518ZM125.517 56.7024L124.826 57.1976C125.66 58.3617 126.111 59.8092 126.342 61.9633C126.574 64.1331 126.576 66.9183 126.576 70.7219H127.426H128.276C128.276 66.9558 128.277 64.0635 128.033 61.7821C127.786 59.485 127.283 57.7076 126.208 56.2072L125.517 56.7024ZM127.426 70.7219L126.576 70.7219C126.576 74.5253 126.574 77.3103 126.342 79.4799C126.111 81.6338 125.66 83.0812 124.826 84.2453L125.517 84.7405L126.208 85.2357C127.283 83.7353 127.786 81.9581 128.032 79.6612C128.277 77.3799 128.276 74.4879 128.276 70.7219L127.426 70.7219ZM125.517 84.7405L124.826 84.2453C124.23 85.0763 123.502 85.8045 122.671 86.4L123.166 87.0911L123.661 87.7821C124.643 87.0783 125.504 86.2179 126.208 85.2357L125.517 84.7405ZM123.166 87.0911L122.671 86.4C121.507 87.2342 120.059 87.6853 117.905 87.9163C115.735 88.149 112.95 88.1501 109.146 88.1501V89.0002V89.8504C112.913 89.8504 115.805 89.8516 118.086 89.607C120.383 89.3607 122.161 88.8573 123.661 87.7821L123.166 87.0911ZM109.146 89.0002V88.1501H27.5293V89.0002V89.8504H109.146V89.0002ZM27.5293 89.0002L27.5293 88.1501C23.7257 88.1501 20.9404 88.149 18.7707 87.9163C16.6166 87.6854 15.1691 87.2342 14.005 86.4L13.5098 87.0911L13.0146 87.7821C14.515 88.8573 16.2924 89.3607 18.5894 89.607C20.8709 89.8516 23.7631 89.8504 27.5293 89.8504L27.5293 89.0002ZM13.5098 87.0911L14.005 86.4C13.1743 85.8047 12.4469 85.0765 11.8512 84.2453L11.1602 84.7405L10.4691 85.2357C11.1727 86.2175 12.0322 87.0781 13.0145 87.7821L13.5098 87.0911ZM11.1602 84.7405L11.8512 84.2453C11.017 83.0811 10.5656 81.6337 10.3344 79.4799C10.1016 77.3104 10.1002 74.5254 10.1002 70.7219L9.25 70.7219L8.39982 70.7219C8.39982 74.488 8.3989 77.3801 8.64378 79.6613C8.89034 81.9582 9.39402 83.7354 10.4691 85.2357L11.1602 84.7405ZM9.25 70.7219H10.1002C10.1002 66.9183 10.1015 64.1331 10.3344 61.9634C10.5656 59.8093 11.017 58.3618 11.8512 57.1976L11.1602 56.7024L10.4691 56.2072C9.39395 57.7075 8.89028 59.4849 8.64374 61.7819C8.39887 64.0634 8.39982 66.9557 8.39982 70.7219H9.25ZM11.1602 56.7024L11.8512 57.1976C12.4469 56.3663 13.1743 55.6382 14.005 55.0429L13.5098 54.3518L13.0145 53.6607C12.0322 54.3647 11.1727 55.2254 10.4691 56.2072L11.1602 56.7024ZM13.5098 54.3518L14.005 55.0429C14.7028 54.5428 15.4999 54.1823 16.4838 53.9235L16.2676 53.1013L16.0513 52.2791C14.9023 52.5813 13.9081 53.0205 13.0146 53.6607L13.5098 54.3518ZM17.8346 51.2788L18.6767 51.3959C19.0052 49.0324 20.4287 46.8608 22.6997 45.6691L22.3047 44.9163L21.9096 44.1634C19.1323 45.6208 17.3933 48.2786 16.9925 51.1617L17.8346 51.2788ZM7.27637 38.4768L7.6713 39.2297C9.33381 38.3576 11.3884 38.9983 12.2608 40.6609L13.0137 40.2659L13.7665 39.8708C12.4578 37.377 9.37568 36.4155 6.88143 37.7239L7.27637 38.4768ZM13.0137 40.2659L12.2608 40.6609C13.1333 42.3238 12.4929 44.379 10.8305 45.2513L11.2256 46.0042L11.6206 46.757C14.115 45.4481 15.0751 42.3649 13.7665 39.8709L13.0137 40.2659ZM11.2256 46.0042L10.8306 45.2513C9.1679 46.1237 7.11257 45.4828 6.24015 43.8201L5.4873 44.2151L4.73446 44.6101C6.04314 47.1043 9.12625 48.0657 11.6206 46.757L11.2256 46.0042ZM5.4873 44.2151L6.24016 43.8201C5.36779 42.1574 6.0086 40.1021 7.67137 39.2297L7.27637 38.4768L6.88137 37.724C4.38709 39.0326 3.42574 42.1157 4.73445 44.6101L5.4873 44.2151ZM16.2676 53.1013L16.4838 53.9235C17.6834 53.608 18.5143 52.564 18.6767 51.3959L17.8346 51.2788L16.9925 51.1617C16.9161 51.7118 16.5293 52.1534 16.0513 52.2791L16.2676 53.1013ZM34.5854 50.7521L33.7522 50.9209C33.998 52.1343 35.0141 53.2928 36.4557 53.2928V52.4426V51.5924C36.018 51.5924 35.546 51.2118 35.4187 50.5833L34.5854 50.7521Z" fill="#97979F" fill-opacity="0.278431" mask="url(#path-13-inside-3_19076_16596)"/>
<path fill-rule="evenodd" clip-rule="evenodd" d="M28.366 60.1211C28.3658 60.1962 28.4016 60.2701 28.4686 60.3039C28.7042 60.4229 28.8485 60.649 28.9097 60.9058C29.0355 61.4341 29.2299 62.4826 29.2299 63.92V66.0078C29.2299 66.7333 28.6418 67.3207 27.9163 67.3207C27.4188 67.3207 26.9639 67.0396 26.7414 66.5946L25.9941 65.0999C25.8995 64.9107 25.6796 64.8191 25.4735 64.8667C25.2305 64.9229 24.8922 64.9827 24.5539 64.9827C24.2157 64.9827 23.8774 64.9229 23.6343 64.8667C23.4282 64.8191 23.2084 64.9107 23.1138 65.0999L22.3665 66.5946C22.1439 67.0396 21.6891 67.3207 21.1915 67.3207C20.4661 67.3207 19.8779 66.7333 19.8779 66.0078V63.92C19.8779 62.4826 20.0723 61.4341 20.1982 60.9058C20.2594 60.649 20.4037 60.4229 20.6393 60.3039C20.7063 60.2701 20.7421 60.1962 20.7419 60.1211C20.7413 59.8259 20.9469 59.5606 21.2471 59.4967L22.4945 59.2316C22.711 59.1856 22.9251 59.2553 23.0725 59.3989C23.2239 59.5464 23.4057 59.7034 23.6167 59.6924C23.9052 59.6774 24.217 59.6691 24.5539 59.6691C24.8908 59.6691 25.2027 59.6774 25.4912 59.6924C25.7022 59.7034 25.884 59.5464 26.0354 59.3989C26.1828 59.2553 26.3969 59.1856 26.6134 59.2316L27.8608 59.4967C28.161 59.5606 28.3666 59.8259 28.366 60.1211ZM27.9547 61.582C27.9547 61.9341 27.6692 62.2196 27.317 62.2196C26.9649 62.2196 26.6794 61.9341 26.6794 61.582C26.6794 61.2298 26.9649 60.9443 27.317 60.9443C27.6692 60.9443 27.9547 61.2298 27.9547 61.582ZM26.0418 63.4949C26.3939 63.4949 26.6794 63.2094 26.6794 62.8572C26.6794 62.5051 26.3939 62.2196 26.0418 62.2196C25.6896 62.2196 25.4041 62.5051 25.4041 62.8572C25.4041 63.2094 25.6896 63.4949 26.0418 63.4949ZM21.5783 61.3694C21.5783 61.1346 21.7686 60.9443 22.0034 60.9443C22.2382 60.9443 22.4285 61.1346 22.4285 61.3694V61.7945H22.8536C23.0883 61.7945 23.2787 61.9848 23.2787 62.2196C23.2787 62.4544 23.0883 62.6447 22.8536 62.6447H22.4285V63.0698C22.4285 63.3046 22.2382 63.4949 22.0034 63.4949C21.7686 63.4949 21.5783 63.3046 21.5783 63.0698V62.6447H21.1532C20.9184 62.6447 20.7281 62.4544 20.7281 62.2196C20.7281 61.9848 20.9184 61.7945 21.1532 61.7945H21.5783V61.3694Z" fill="#75757E"/>
<rect x="31.3555" y="60.5193" width="34.8575" height="5.95128" rx="2.97564" fill="#97979F" fill-opacity="0.278431"/>
<rect x="19.4531" y="71.9968" width="97.7711" height="11.0524" rx="5.52619" fill="#97979F" fill-opacity="0.278431"/>
</g>
<defs>
<filter id="filter0_d_19076_16596" x="69.5653" y="0.662478" width="132.444" height="61.0272" filterUnits="userSpaceOnUse" color-interpolation-filters="sRGB">
<feFlood flood-opacity="0" result="BackgroundImageFix"/>
<feColorMatrix in="SourceAlpha" type="matrix" values="0 0 0 0 0 0 0 0 0 0 0 0 0 0 0 0 0 0 127 0" result="hardAlpha"/>
<feOffset dy="1.25199"/>
<feGaussianBlur stdDeviation="2.50399"/>
<feComposite in2="hardAlpha" operator="out"/>
<feColorMatrix type="matrix" values="0 0 0 0 0 0 0 0 0 0 0 0 0 0 0 0 0 0 0.19 0"/>
<feBlend mode="normal" in2="BackgroundImageFix" result="effect1_dropShadow_19076_16596"/>
<feBlend mode="normal" in="SourceGraphic" in2="effect1_dropShadow_19076_16596" result="shape"/>
</filter>
<filter id="filter1_d_19076_16596" x="34.7791" y="17.233" width="132.443" height="61.0272" filterUnits="userSpaceOnUse" color-interpolation-filters="sRGB">
<feFlood flood-opacity="0" result="BackgroundImageFix"/>
<feColorMatrix in="SourceAlpha" type="matrix" values="0 0 0 0 0 0 0 0 0 0 0 0 0 0 0 0 0 0 127 0" result="hardAlpha"/>
<feOffset dy="1.25199"/>
<feGaussianBlur stdDeviation="2.50399"/>
<feComposite in2="hardAlpha" operator="out"/>
<feColorMatrix type="matrix" values="0 0 0 0 0 0 0 0 0 0 0 0 0 0 0 0 0 0 0.19 0"/>
<feBlend mode="normal" in2="BackgroundImageFix" result="effect1_dropShadow_19076_16596"/>
<feBlend mode="normal" in="SourceGraphic" in2="effect1_dropShadow_19076_16596" result="shape"/>
</filter>
<filter id="filter2_d_19076_16596" x="-0.00797176" y="34.2333" width="132.443" height="61.0272" filterUnits="userSpaceOnUse" color-interpolation-filters="sRGB">
<feFlood flood-opacity="0" result="BackgroundImageFix"/>
<feColorMatrix in="SourceAlpha" type="matrix" values="0 0 0 0 0 0 0 0 0 0 0 0 0 0 0 0 0 0 127 0" result="hardAlpha"/>
<feOffset dy="1.25199"/>
<feGaussianBlur stdDeviation="2.50399"/>
<feComposite in2="hardAlpha" operator="out"/>
<feColorMatrix type="matrix" values="0 0 0 0 0 0 0 0 0 0 0 0 0 0 0 0 0 0 0.19 0"/>
<feBlend mode="normal" in2="BackgroundImageFix" result="effect1_dropShadow_19076_16596"/>
<feBlend mode="normal" in="SourceGraphic" in2="effect1_dropShadow_19076_16596" result="shape"/>
</filter>
<clipPath id="clip0_19076_16596">
<rect width="10.2022" height="10.2022" fill="white" transform="translate(89.0273 24.823)"/>
</clipPath>
<clipPath id="clip1_19076_16596">
<rect width="10.2022" height="10.2022" fill="white" transform="translate(54.2402 41.3936)"/>
</clipPath>
</defs>
</svg>
